HIERARCHY
ROOT Hips
{
     OFFSET 14.93470 93.75050 -28.65700
     CHANNELS 6 Xposition Yposition Zposition Zrotation Xrotation Yrotation
     JOINT Spine
     {
          OFFSET 0.00000 11.89050 0.00000
          CHANNELS 3 Zrotation Xrotation Yrotation
          JOINT Spine1
          {
               OFFSET 0.00000 25.65740 0.12766
               CHANNELS 3 Zrotation Xrotation Yrotation
               JOINT HEad
               {
                    OFFSET -0.00000 8.73416 0.01134
                    CHANNELS 3 Zrotation Xrotation Yrotation
                    End Site
                    {
                         OFFSET -0.29000 12.77420 2.51395
                    }
               }
               JOINT LeftShoulder1
               {
                    OFFSET 8.99000 -0.36225 -0.22000
                    CHANNELS 3 Zrotation Xrotation Yrotation
                    JOINT LeftArm
                    {
                         OFFSET 10.28270 -0.00338 0.32212
                         CHANNELS 3 Zrotation Xrotation Yrotation
                         JOINT LeftForeArm
                         {
                              OFFSET 32.76690 0.09914 -1.42434
                              CHANNELS 3 Zrotation Xrotation Yrotation
                              JOINT LeftHand
                              {
                                   OFFSET 27.56430 0.08536 1.02216
                                   CHANNELS 3 Zrotation Xrotation Yrotation
                                   End Site
                                   {
                                        OFFSET 16.74430 -0.60000 1.50291
                                   }
                              }
                         }
                    }
               }
               JOINT RightShoulder
               {
                    OFFSET -8.99000 -0.36225 -0.22000
                    CHANNELS 3 Zrotation Xrotation Yrotation
                    JOINT RightArm
                    {
                         OFFSET -10.28270 -0.00338 0.32212
                         CHANNELS 3 Zrotation Xrotation Yrotation
                         JOINT RightForeArm
                         {
                              OFFSET -32.89710 0.09914 -1.42434
                              CHANNELS 3 Zrotation Xrotation Yrotation
                              JOINT RightHand
                              {
                                   OFFSET -27.49210 0.08536 1.02216
                                   CHANNELS 3 Zrotation Xrotation Yrotation
                                   End Site
                                   {
                                        OFFSET -16.63120 -0.60000 1.50291
                                   }
                              }
                         }
                    }
               }
          }
     }
     JOINT LeftUpLeg
     {
          OFFSET 8.94580 -8.66707 0.10165
          CHANNELS 3 Zrotation Xrotation Yrotation
          JOINT LeftLeg
          {
               OFFSET -0.00000 -44.42270 1.37270
               CHANNELS 3 Zrotation Xrotation Yrotation
               JOINT LeftFoot
               {
                    OFFSET -0.25355 -42.09240 -1.46059
                    CHANNELS 3 Zrotation Xrotation Yrotation
                    JOINT LeftToes
                    {
                         OFFSET -0.04000 -4.41509 8.49910
                         CHANNELS 3 Zrotation Xrotation Yrotation
                         End Site
                         {
                              OFFSET 0.08000 -0.04745 9.77979
                         }
                    }
               }
          }
     }
     JOINT RightUpLeg
     {
          OFFSET -8.94580 -8.66707 0.10165
          CHANNELS 3 Zrotation Xrotation Yrotation
          JOINT RightLeg
          {
               OFFSET 0.00000 -44.42270 1.37270
               CHANNELS 3 Zrotation Xrotation Yrotation
               JOINT RightFoot
               {
                    OFFSET 0.25355 -42.09240 -1.46059
                    CHANNELS 3 Zrotation Xrotation Yrotation
                    JOINT RightToes
                    {
                         OFFSET 0.04000 -4.41509 8.49910
                         CHANNELS 3 Zrotation Xrotation Yrotation
                         End Site
                         {
                              OFFSET -0.08000 -0.13745 9.77979
                         }
                    }
               }
          }
     }
}
MOTION
Frames: 8
Frame Time: 0.01667
14.93470 93.75050 -28.65700 -9.48736 -14.14020 -40.81850 -3.19383 11.77490 -0.31744 -0.97896 23.43970 -1.14799 -9.28406 -0.93189 15.26940 -0.00000 0.00000 -0.00000 -119.39500 -59.58790 -94.51370 -34.64500 48.91850 -76.26350 16.88970 7.37069 -13.53030 13.89360 0.64152 1.22683 87.29700 2.38652 72.81400 18.17580 31.65910 92.37390 21.59970 12.62090 9.66131 24.24570 -5.24199 -19.42140 -34.56550 13.71370 77.80930 -1.43214 13.39930 0.16600 3.27741 -27.24500 -58.04130 -27.61240 8.02945 14.68040 40.38880 12.61440 -33.78940 -34.57820 0.11015 2.30567 10.14290 -47.35310 18.57560 
15.25590 93.63280 -27.87090 -9.41509 -13.89950 -41.67080 -3.19674 11.74530 -0.38916 -1.04091 23.35870 -1.22778 -9.50449 -1.03481 15.92720 -0.00000 0.00000 -0.00000 -119.81000 -60.04790 -94.71490 -34.57930 48.82740 -76.37530 16.91520 7.36268 -13.55750 13.64600 0.66844 1.43169 87.36170 2.98303 72.91730 18.07360 31.53660 92.26870 21.71810 12.64060 9.68652 24.83190 -5.53336 -19.15750 -34.41780 13.65850 77.98740 -1.10845 13.30020 0.10643 3.15453 -27.55850 -58.36450 -28.13870 7.53053 14.47100 40.24920 13.18850 -33.04620 -34.49370 0.28555 2.35479 10.03850 -47.80340 17.83650 
15.60630 93.46710 -27.01800 -9.40212 -13.58630 -42.50430 -2.96392 11.72150 -0.51972 -1.07842 23.30030 -1.34235 -9.66543 -1.27552 16.57760 -0.00000 0.00000 -0.00000 -120.09100 -60.41300 -94.87100 -34.35290 48.61970 -76.58560 16.88050 7.36016 -13.61340 13.42230 0.69105 1.61108 87.46000 3.61539 72.94580 17.92130 31.42870 92.20770 21.74540 12.64670 9.70026 25.68590 -5.57296 -19.53420 -34.04270 12.64140 78.46300 -0.95927 12.72510 0.07793 3.47673 -26.61750 -58.22990 -28.54460 6.93993 14.19740 40.08210 13.97540 -32.33560 -34.30590 0.32799 2.35378 9.80646 -48.07270 16.90360 
15.98810 93.25620 -26.09170 -9.50159 -13.18930 -43.37900 -2.52010 11.70910 -0.66466 -1.08038 23.28370 -1.43083 -9.76282 -1.69339 17.22270 -0.00000 0.00000 -0.00000 -120.62100 -60.71400 -95.28790 -34.17520 48.51810 -76.71290 16.85320 7.35701 -13.66550 13.23320 0.69907 1.69697 87.59350 4.34411 72.88240 17.72170 31.33220 92.20590 21.66220 12.63740 9.70575 26.72830 -5.69825 -20.34640 -33.58060 11.58260 79.18000 -1.48143 11.65470 0.16310 4.22948 -24.39200 -57.47240 -28.82840 6.31452 13.98200 39.91450 14.82470 -31.67980 -34.02080 0.29754 2.32245 9.54270 -48.18830 16.02370 
16.40160 92.96630 -25.04600 -9.73063 -12.70630 -44.32880 -1.92644 11.71740 -0.78556 -1.03514 23.33180 -1.42714 -9.77750 -2.29085 17.83470 -0.00000 0.00000 -0.00000 -121.81900 -60.92810 -96.26810 -34.22580 48.73730 -76.59650 16.90480 7.34298 -13.70530 13.05680 0.67387 1.57301 87.78850 5.26694 72.72310 17.45380 31.23960 92.28390 21.50350 12.62030 9.71973 27.94180 -5.76648 -21.45890 -33.00340 10.44370 79.96130 -2.56964 10.28140 0.32344 5.28605 -20.98800 -55.89340 -29.01240 5.63991 13.85350 39.77300 15.80090 -31.09400 -33.62750 0.15363 2.24818 9.31482 -48.21020 15.33250 
16.84450 92.59740 -23.84990 -10.04200 -12.13080 -45.34570 -1.23265 11.74960 -0.85087 -0.93180 23.44690 -1.27967 -9.71233 -3.01006 18.33640 -0.00000 0.00000 -0.00000 -123.88700 -60.94060 -97.90710 -34.60110 49.37220 -76.13680 17.07950 7.30806 -13.75240 12.85960 0.59133 1.08539 88.06010 6.47657 72.48350 17.11250 31.14950 92.45070 21.32260 12.60060 9.73461 29.21350 -5.87632 -22.69990 -32.36990 9.55619 80.76380 -4.27012 8.72106 0.54046 6.42443 -16.62240 -53.40680 -29.12760 4.91529 13.75040 39.60880 16.91530 -30.50550 -33.18030 -0.07977 2.14392 9.13272 -48.22750 14.77990 
17.31280 92.21260 -22.53250 -10.35070 -11.45970 -46.38980 -0.47424 11.79560 -0.83970 -0.76351 23.60010 -0.98804 -9.64229 -3.73894 18.66370 -0.00000 0.00000 -0.00000 -126.60900 -60.64460 -99.96710 -35.29270 50.34130 -75.33990 17.36960 7.25185 -13.81620 12.64480 0.44437 0.17355 88.36580 7.96991 72.18900 16.75240 31.06680 92.68190 21.15970 12.57510 9.70749 30.47940 -5.99387 -23.98600 -31.72010 8.80812 81.60760 -6.43188 7.15992 0.77134 7.40630 -11.56720 -50.14970 -29.20740 4.21515 13.61350 39.32310 17.93650 -29.79550 -32.83000 -0.23202 2.07287 8.98959 -48.35930 14.25040 
17.84900 91.73540 -21.05530 -10.70950 -10.58200 -47.38210 0.72267 11.79850 -0.86793 -0.37762 23.70520 -0.69042 -9.68048 -4.34610 18.93520 -0.00000 0.00000 -0.00000 -129.21600 -60.15890 -101.83300 -36.10840 51.26210 -74.39750 17.67100 7.18906 -13.90870 12.44690 0.28763 -0.82620 88.62610 9.47836 71.83510 16.46800 30.99130 92.91470 21.04410 12.54350 9.61731 31.64510 -6.61666 -25.13230 -31.21440 9.18136 82.55480 -9.39494 5.64734 1.04084 8.07587 -6.13192 -46.53630 -29.17210 3.47260 13.35990 38.99310 18.98270 -29.02790 -32.57380 -0.33112 2.02521 8.87387 -48.67340 13.66320 
